<svg xmlns="http://www.w3.org/2000/svg" viewBox="0 0 80 80"><defs><linearGradient id="a" x1="0%" y1="100%" x2="0%" y2="0%"><stop offset="0" stop-color="#BD0816"/><stop offset="1" stop-color="#FF5252"/></linearGradient></defs><g fill="none" fill-rule="evenodd"><rect width="80" height="80" fill="url(#a)" rx="4"/><path d="M40 12c-2.21 0-4 1.79-4 4v2h-8c-2.21 0-4 1.79-4 4v6c0 2.21 1.79 4 4 4h2v4h-2c-2.21 0-4 1.79-4 4v6c0 2.21 1.79 4 4 4h8v2c0 2.21 1.79 4 4 4h8c2.21 0 4-1.79 4-4V52h-4v-4h4V36h-4v-4h4V22c0-2.21-1.79-4-4-4h-8v-2c0-2.21-1.79-4-4-4zm0 4h8v6H28v-4h12zm-12 14h24v4H28v-4zm0 12h24v4H28v-4zm0 12h20v4H28v-4zM34 22h4v2h-4v-2zm0 10h4v2h-4v-2zm0 10h4v2h-4v-2zm0 10h4v2h-4v-2z" fill="#fff"/></g></svg>
