<svg xmlns="http://www.w3.org/2000/svg" viewBox="0 0 80 80"><defs><linearGradient id="a" x1="0%" y1="100%" x2="0%" y2="0%"><stop offset="0" stop-color="#1A73E8"/><stop offset="1" stop-color="#4FC3F7"/></linearGradient></defs><g fill="none" fill-rule="evenodd"><rect width="80" height="80" fill="url(#a)" rx="4"/><path d="M40 12c-1.1 0-2 .56-2.56 1.4L16.44 52.6c-.56.96-.56 2.16.08 3.08.56.88 1.52 1.4 2.56 1.4l5.92 0v7c0 2.21 1.79 4 4 4h22c2.21 0 4-1.79 4-4v-7h5.92c1.04 0 2-.52 2.56-1.4.64-.92.64-2.12.08-3.08L42.56 13.4C42 12.56 41.1 12 40 12zm0 5.6L58.4 53.08H21.6L40 17.6zM38 36v10h4V36h-4zm0 14v4h4v-4h-4zM29 57h22v7H29v-7z" fill="#fff"/></g></svg>
