<svg xmlns="http://www.w3.org/2000/svg" viewBox="0 0 80 80"><defs><linearGradient id="a" x1="0%" y1="100%" x2="0%" y2="0%"><stop offset="0" stop-color="#4D27A8"/><stop offset="1" stop-color="#A166FF"/></linearGradient></defs><g fill="none" fill-rule="evenodd"><rect width="80" height="80" fill="url(#a)" rx="4"/><path d="M40 16c-1.1 0-2 .9-2 2v6h4v-6c0-1.1-.9-2-2-2zm0 46c1.1 0 2-.9 2-2v-6h-4v6c0 1.1.9 2 2 2zM24 38h-6c-1.1 0-2 .9-2 2s.9 2 2 2h6c1.1 0 2-.9 2-2s-.9-2-2-2zm38 0h-6c-1.1 0-2 .9-2 2s.9 2 2 2h6c1.1 0 2-.9 2-2s-.9-2-2-2zM40 28c-6.627 0-12 5.373-12 12s5.373 12 12 12 12-5.373 12-12-5.373-12-12-12zm0 20c-4.418 0-8-3.582-8-8s3.582-8 8-8 8 3.582 8 8-3.582 8-8 8zm0-12c-2.21 0-4 1.79-4 4s1.79 4 4 4 4-1.79 4-4-1.79-4-4-4z" fill="#fff"/></g></svg>
