<svg xmlns="http://www.w3.org/2000/svg" viewBox="0 0 80 80"><defs><linearGradient id="a" x1="0%" y1="100%" x2="0%" y2="0%"><stop offset="0" stop-color="#BD0816"/><stop offset="1" stop-color="#FF5252"/></linearGradient></defs><g fill="none" fill-rule="evenodd"><rect width="80" height="80" fill="url(#a)" rx="4"/><path d="M40 14c-7.732 0-14 6.268-14 14 0 5.608 3.3 10.44 8.06 12.68L30.4 58.4c-.16.64.01 1.32.44 1.79l4 5c.38.47.96.75 1.56.81h.2c.55 0 1.08-.2 1.49-.56l3-2.6c.53-.46.78-1.16.66-1.84l-.56-3.38 2.7-1.35c.64-.32 1.01-.99.97-1.7l-.18-3.24 2.88-.96c.57-.19.99-.66 1.12-1.24l.9-4.08C53.42 43.08 54 38.89 54 28c0-7.732-6.268-14-14-14zm0 4c5.523 0 10 4.477 10 10s-4.477 10-10 10-10-4.477-10-10S34.477 18 40 18zm0 6c-2.21 0-4 1.79-4 4s1.79 4 4 4 4-1.79 4-4-1.79-4-4-4z" fill="#fff"/></g></svg>
