<svg xmlns="http://www.w3.org/2000/svg" viewBox="0 0 80 80"><defs><linearGradient id="a" x1="0%" y1="100%" x2="0%" y2="0%"><stop offset="0" stop-color="#BD0816"/><stop offset="1" stop-color="#FF5252"/></linearGradient></defs><g fill="none" fill-rule="evenodd"><rect width="80" height="80" fill="url(#a)" rx="4"/><path d="M40 12c-6.627 0-12 5.373-12 12v8H24c-2.21 0-4 1.79-4 4v24c0 2.21 1.79 4 4 4h32c2.21 0 4-1.79 4-4V36c0-2.21-1.79-4-4-4h-4v-8c0-6.627-5.373-12-12-12zm0 4c4.418 0 8 3.582 8 8v8H32v-8c0-4.418 3.582-8 8-8zM24 36h32v24H24V36zm16 6c-2.21 0-4 1.79-4 4 0 1.477.807 2.76 2 3.45V54c0 1.1.9 2 2 2s2-.9 2-2v-4.55c1.193-.69 2-1.973 2-3.45 0-2.21-1.79-4-4-4z" fill="#fff"/></g></svg>
