<svg xmlns="http://www.w3.org/2000/svg" viewBox="0 0 80 80"><defs><linearGradient id="a" x1="0%" y1="100%" x2="0%" y2="0%"><stop offset="0" stop-color="#BD0816"/><stop offset="1" stop-color="#FF5252"/></linearGradient></defs><g fill="none" fill-rule="evenodd"><rect width="80" height="80" fill="url(#a)" rx="4"/><path d="M40 14c-5.523 0-10 4.477-10 10 0 3.592 1.896 6.737 4.74 8.5H30c-4.418 0-8 3.582-8 8v4c0 1.1.9 2 2 2h4v14c0 1.1.9 2 2 2h20c1.1 0 2-.9 2-2V46.5h4c1.1 0 2-.9 2-2v-4c0-4.418-3.582-8-8-8h-4.74c2.844-1.763 4.74-4.908 4.74-8.5 0-5.523-4.477-10-10-10zm0 4c3.314 0 6 2.686 6 6s-2.686 6-6 6-6-2.686-6-6 2.686-6 6-6zm-10 18h20c2.21 0 4 1.79 4 4v2H26v-2c0-2.21 1.79-4 4-4zm2 10h16v12H32V46z" fill="#fff"/></g></svg>
