<svg xmlns="http://www.w3.org/2000/svg" viewBox="0 0 24 24" fill="#4A5568">
  <rect x="2" y="3" width="20" height="5" rx="1" ry="1"/>
  <circle cx="5" cy="5.5" r="0.8" fill="#fff"/>
  <circle cx="7.5" cy="5.5" r="0.8" fill="#fff"/>
  <rect x="10" y="4.5" width="11" height="0.8" rx="0.4" fill="#fff" opacity="0.5"/>
  <rect x="10" y="6.5" width="8" height="0.8" rx="0.4" fill="#fff" opacity="0.5"/>

  <rect x="2" y="10" width="20" height="5" rx="1" ry="1"/>
  <circle cx="5" cy="12.5" r="0.8" fill="#fff"/>
  <circle cx="7.5" cy="12.5" r="0.8" fill="#fff"/>
  <rect x="10" y="11.5" width="11" height="0.8" rx="0.4" fill="#fff" opacity="0.5"/>
  <rect x="10" y="13.5" width="8" height="0.8" rx="0.4" fill="#fff" opacity="0.5"/>

  <rect x="2" y="17" width="20" height="5" rx="1" ry="1"/>
  <circle cx="5" cy="19.5" r="0.8" fill="#fff"/>
  <circle cx="7.5" cy="19.5" r="0.8" fill="#fff"/>
  <rect x="10" y="18.5" width="11" height="0.8" rx="0.4" fill="#fff" opacity="0.5"/>
  <rect x="10" y="20.5" width="8" height="0.8" rx="0.4" fill="#fff" opacity="0.5"/>
</svg>
