<svg xmlns="http://www.w3.org/2000/svg" xmlns:xlink="http://www.w3.org/1999/xlink" viewBox="0 0 128 128">
  <defs>
    <linearGradient id="gcp-service-account-gradient" x2="0" y1="7.03" y2="120.79" gradientUnits="userSpaceOnUse">
      <stop stop-color="#4387fd"/>
      <stop offset="1" stop-color="#4683ea"/>
    </linearGradient>
    <clipPath id="gcp-service-account-clip">
      <use xlink:href="#gcp-service-account-hex"/>
    </clipPath>
    <path id="gcp-service-account-hex" d="M27.791 115.22 1.541 69.75a11.5 11.5 0 0 1 0-11.499l26.25-45.47a11.5 11.5 0 0 1 9.959-5.75h52.5c4.108 0 7.904 2.192 9.959 5.75l26.25 45.47a11.5 11.5 0 0 1 0 11.499l-26.25 45.47a11.5 11.5 0 0 1-9.959 5.749h-52.5a11.5 11.5 0 0 1-9.958-5.749"/>
  </defs>
  <path fill="url(#gcp-service-account-gradient)" d="M27.791 115.22 1.541 69.75a11.5 11.5 0 0 1 0-11.499l26.25-45.47a11.5 11.5 0 0 1 9.959-5.75h52.5c4.108 0 7.904 2.192 9.959 5.75l26.25 45.47a11.5 11.5 0 0 1 0 11.499l-26.25 45.47a11.5 11.5 0 0 1-9.959 5.749h-52.5a11.5 11.5 0 0 1-9.958-5.749"/>
  <path d="M124.05 82.86 89.63 48.44 64 37 39.5 50.31l-1.027 29.34 42.547 42.54 16.65-.15z" clip-path="url(#gcp-service-account-clip)" opacity=".07"/>
  <path fill="#fff" fill-rule="evenodd" d="M64 30a34 34 0 1 1 0 68 34 34 0 0 1 0-68zm0 8a26 26 0 1 0 0 52 26 26 0 0 0 0-52z"/>
  <path fill="#fff" d="M59.5 24h9l1.2 9.6-11.4 0zM59.5 104h9l1.2-9.6-11.4 0zM24 59.5v9l9.6 1.2 0-11.4zM104 59.5v9l-9.6 1.2 0-11.4z"/>
  <circle fill="#fff" cx="64" cy="56" r="9"/>
  <path fill="#fff" d="M64 68c8.3 0 15 6.7 15 15v3H49v-3c0-8.3 6.7-15 15-15z"/>
</svg>
