<svg xmlns="http://www.w3.org/2000/svg" viewBox="0 0 80 80"><defs><linearGradient id="a" x1="0%" y1="100%" x2="0%" y2="0%"><stop offset="0" stop-color="#1A73E8"/><stop offset="1" stop-color="#4FC3F7"/></linearGradient></defs><g fill="none" fill-rule="evenodd"><rect width="80" height="80" fill="url(#a)" rx="4"/><path d="M56 20H24c-2.21 0-4 1.79-4 4v4c0 1.48.81 2.77 2 3.46V60c0 2.21 1.79 4 4 4h28c2.21 0 4-1.79 4-4V31.46c1.19-.69 2-1.98 2-3.46v-4c0-2.21-1.79-4-4-4zM24 24h32v4H24v-4zm2 8h28v28H26V32zm6 4v4h16v-4H32zm0 8v4h16v-4H32zm0 8v4h12v-4H32z" fill="#fff"/></g></svg>
