<svg xmlns="http://www.w3.org/2000/svg" viewBox="0 0 80 80"><defs><linearGradient id="a" x1="0%" y1="100%" x2="0%" y2="0%"><stop offset="0" stop-color="#BD0816"/><stop offset="1" stop-color="#FF5252"/></linearGradient></defs><g fill="none" fill-rule="evenodd"><rect width="80" height="80" fill="url(#a)" rx="4"/><path d="M40 12L20 22v18c0 12.13 8.533 23.47 20 26 11.467-2.53 20-13.87 20-26V22L40 12zm0 4.36L56 24.6V40c0 9.87-6.84 19.12-16 21.52V16.36zM24 24.6l16-8.24v37.16C30.84 51.12 24 41.87 24 32V24.6zM36 34h8v4h-8v-4zm0 8h8v4h-8v-4z" fill="#fff"/></g></svg>
