<svg role="img" viewBox="0 0 24 24" xmlns="http://www.w3.org/2000/svg">
  <title>Amazon S3</title>
  <path fill="#FF9900" d="M12 2C8.686 2 6 3.567 6 5.5v1c0 1.933 2.686 3.5 6 3.5s6-1.567 6-3.5v-1c0-1.933-2.686-3.5-6-3.5zm0 1c2.757 0 5 1.12 5 2.5S14.757 8 12 8 7 6.88 7 5.5 9.243 3 12 3zM6 8.279v2.221c0 1.933 2.686 3.5 6 3.5s6-1.567 6-3.5V8.279c-1.333 1.122-3.5 1.721-6 1.721s-4.667-.599-6-1.721zM6 12.279v2.221c0 1.933 2.686 3.5 6 3.5s6-1.567 6-3.5v-2.221c-1.333 1.122-3.5 1.721-6 1.721s-4.667-.599-6-1.721zM6 16.279V18.5c0 1.933 2.686 3.5 6 3.5s6-1.567 6-3.5v-2.221c-1.333 1.122-3.5 1.721-6 1.721s-4.667-.599-6-1.721z"/>
</svg>
